<?xml version="1.0" encoding="utf-8"?>
<!-- Generator: Adobe Illustrator 19.0.0, SVG Export Plug-In . SVG Version: 6.00 Build 0)  -->
<svg version="1.1" id="Layer_1" xmlns="http://www.w3.org/2000/svg"  x="0px" y="0px"
	 viewBox="0 0 39.4 39.1" style="enable-background:new 0 0 39.4 39.1;" xml:space="preserve">
<g id="XMLID_42_" fill="#FFF" fill-rule="nonzero" opacity=".03">
	<path id="XMLID_46_" class="st0" d="M37.5,24.2c-0.2,0-0.4,0.1-0.6,0.2l0,0c-1.7,1.1-3.7,1.9-5.8,2.3c-8.9,1.7-17.5-4.2-19.2-13.1
		c-0.8-4,0-8,1.9-11.3c0,0,0,0,0,0C14,2.1,14.1,1.7,14,1.3c-0.2-0.9-1-1.4-1.9-1.3c-0.1,0-0.3,0.1-0.4,0.1C3.5,4-1.4,13.1,0.4,22.5
		c2.1,11.1,12.8,18.3,23.9,16.2c7.1-1.3,12.6-6.2,15.1-12.4c0.1-0.3,0.1-0.6,0.1-0.9C39.2,24.6,38.4,24,37.5,24.2z"/>
	<path id="XMLID_44_" class="st0" d="M34.2,4.7c-3.7-1.5-6,3.3-6,3.3s-2.3-4.7-6-3.3c-2.4,0.9-3.9,3.7-2,6.8c1.8,3,5.6,6.4,7.2,7.8
		c0.3,0.3,0.7,0.4,1.2,0.2c0.2-0.1,0.3-0.1,0.4-0.2c1.7-1.4,5.5-4.8,7.2-7.8C38,8.4,36.5,5.6,34.2,4.7z"/>
</g>
</svg>
